<svg width="144" height="144" viewBox="0 0 512 512" xmlns="http://www.w3.org/2000/svg">
  <!-- Dark background with rounded corners -->
  <rect width="512" height="512" rx="102" fill="#1D1D1B"/>
  
  <!-- Blink Bitcoin Logo - Orange gradient circle with B -->
  <g transform="translate(56, 56) scale(0.78)">
    <defs>
      <linearGradient id="orangeGrad" x1="127.29" y1="420.30" x2="384.71" y2="91.71" gradientUnits="userSpaceOnUse">
        <stop offset="0" stop-color="#F6AF1B"/>
        <stop offset="1" stop-color="#E75924"/>
      </linearGradient>
    </defs>
    
    <!-- Orange circle outline -->
    <path fill="url(#orangeGrad)" d="M306.79,53.62c-0.19-0.05-0.38-0.1-0.57-0.15c-16.87-4.18-33.74-6.18-50.37-6.18v0h-0.08v0
      c-93.61,0.04-178.75,63.52-202.3,158.48C25.74,317.63,93.93,430.79,205.77,458.52c16.87,4.18,33.75,6.18,50.39,6.18
      c93.64,0,178.81-63.5,202.36-158.48C486.21,194.6,418.34,81.62,306.79,53.62z M442.14,302.17
      c-21.27,85.76-97.75,145.66-185.98,145.66c-15.52,0-31.11-1.91-46.32-5.69c-49.72-12.33-91.66-43.28-118.1-87.16
      s-34.21-95.42-21.88-145.14C91.12,124.1,167.69,64.21,255.9,64.17c15.49,0,31.06,1.92,46.39,5.72l0.19,0.05l0.2,0.05
      C404.97,95.66,467.53,199.81,442.14,302.17z"/>
    
    <!-- Bitcoin B symbol - white for dark background -->
    <path fill="#FFFFFF" d="M299.5,228.06c-5.99,23.97-42.54,11.68-54.41,8.75l10.48-41.94c11.68,2.88,49.92,8.39,43.74,33.19H299.5z
       M292.97,295.84c-6.47,26.12-50.45,11.99-64.71,8.44l11.56-46.32C254.08,261.56,299.74,268.57,292.97,295.84z M340.9,228.42
      c3.78-25.53-15.64-39.25-41.94-48.35l8.63-34.57l-21.27-5.27l-8.39,33.68c-5.51-1.38-11.2-2.7-16.84-3.96l8.39-34.04l-21.03-5.27
      l-8.63,34.57l-13.42-2.99l-29.06-7.25l-5.57,22.47c0,0,14.52,3.55,15.28,3.84c4.7,0.95,10.29,6.01,9.83,11.99l-23.61,94.68
      c-1.29,4.04-5.6,6.26-9.64,4.97h0c-0.45-0.12-15.34-3.78-15.34-3.78l-10.43,23.97l27.38,6.77l14.98,3.9l-8.69,34.93l21.03,5.27
      l8.63-34.57c5.67,1.56,11.25,2.99,16.72,4.31l-8.51,34.7l21.03,5.21l8.69-34.87c35.95,6.78,62.86,4.07,74.24-28.4
      c9.17-26.13-0.48-41.17-19.35-51c13.78-3.18,23.97-11.99,26.9-30.92L340.9,228.42z"/>
  </g>
</svg>
