<?xml version="1.0" encoding="UTF-8"?>
<!-- Blink Bitcoin Logo - 8-bit Pixelated Monochrome Version -->
<svg width="64" height="64" viewBox="0 0 64 64" fill="none" xmlns="http://www.w3.org/2000/svg">
  <!-- Outer circle (pixelated) -->
  <path d="
    M24 2h16v2h-16v-2z
    M18 4h6v2h-6v-2z
    M40 4h6v2h-6v-2z
    M14 6h4v2h-4v-2z
    M46 6h4v2h-4v-2z
    M10 8h4v2h-4v-2z
    M50 8h4v2h-4v-2z
    M8 10h2v4h-2v-4z
    M54 10h2v4h-2v-4z
    M6 14h2v4h-2v-4z
    M56 14h2v4h-2v-4z
    M4 18h2v6h-2v-6z
    M58 18h2v6h-2v-6z
    M2 24h2v16h-2v-16z
    M60 24h2v16h-2v-16z
    M4 40h2v6h-2v-6z
    M58 40h2v6h-2v-6z
    M6 46h2v4h-2v-4z
    M56 46h2v4h-2v-4z
    M8 50h2v4h-2v-4z
    M54 50h2v4h-2v-4z
    M10 54h4v2h-4v-2z
    M50 54h4v2h-4v-2z
    M14 56h4v2h-4v-2z
    M46 56h4v2h-4v-2z
    M18 58h6v2h-6v-2z
    M40 58h6v2h-6v-2z
    M24 60h16v2h-16v-2z
  " fill="black"/>
  
  <!-- Bitcoin symbol (pixelated ₿) -->
  <!-- Vertical bars -->
  <rect x="26" y="14" width="4" height="4" fill="black"/>
  <rect x="34" y="14" width="4" height="4" fill="black"/>
  <rect x="26" y="46" width="4" height="4" fill="black"/>
  <rect x="34" y="46" width="4" height="4" fill="black"/>
  
  <!-- Top horizontal -->
  <rect x="22" y="18" width="20" height="4" fill="black"/>
  
  <!-- Upper B curve -->
  <rect x="22" y="22" width="4" height="8" fill="black"/>
  <rect x="38" y="22" width="4" height="4" fill="black"/>
  <rect x="26" y="26" width="16" height="4" fill="black"/>
  
  <!-- Middle horizontal -->
  <rect x="22" y="30" width="20" height="4" fill="black"/>
  
  <!-- Lower B curve -->
  <rect x="22" y="34" width="4" height="8" fill="black"/>
  <rect x="40" y="34" width="4" height="4" fill="black"/>
  <rect x="26" y="38" width="18" height="4" fill="black"/>
  
  <!-- Bottom horizontal -->
  <rect x="22" y="42" width="20" height="4" fill="black"/>
</svg>

