<?xml version="1.0" encoding="UTF-8" standalone="no"?>
<!-- Created with Inkscape (http://www.inkscape.org/) -->

<svg
   width="52.621593mm"
   height="78.932541mm"
   viewBox="0 0 52.621593 78.932541"
   version="1.1"
   id="svg1"
   xml:space="preserve"
   xmlns="http://www.w3.org/2000/svg"
   xmlns:svg="http://www.w3.org/2000/svg"><defs
     id="defs1" /><g
     id="layer1"
     transform="translate(-837.22011,65.616702)"><g
       style="fill:#3b82f6;fill-opacity:1"
       id="g6"
       transform="matrix(5.2621588,0,0,5.2621588,837.22011,-65.616699)"><path
         fill-rule="evenodd"
         clip-rule="evenodd"
         d="m 1.19704,4.35805 c 0.91255,0.86581 1.41661,1.98392 1.41661,3.14231 0,1.15839 -0.50406,2.27651 -1.41661,3.14234 -0.251344,0.2384 -0.684329,0.2599 -0.967102,0.048 C -0.052834,10.4787 -0.0783133,10.1136 0.173028,9.87509 0.862664,9.22077 1.2436,8.37578 1.2436,7.50036 1.2436,6.62494 0.862664,5.77995 0.173029,5.12564 -0.0783131,4.88717 -0.0528338,4.52202 0.229938,4.31005 0.512711,4.09809 0.945697,4.11958 1.19704,4.35805 Z"
         fill="#f59e0b"
         id="path4"
         style="fill:#3b82f6;fill-opacity:1" /><path
         fill-rule="evenodd"
         clip-rule="evenodd"
         d="M 3.7992,2.14226 C 5.41043,3.5954 6.30677,5.51054 6.30677,7.5 c 0,1.98946 -0.89634,3.9046 -2.50757,5.3577 C 3.5408,13.0908 3.10731,13.103 2.83097,12.8851 2.55463,12.6672 2.54008,12.3016 2.79848,12.0686 4.1724,10.8295 4.93671,9.19643 4.93671,7.5 4.93671,5.80357 4.1724,4.17051 2.79848,2.9314 2.54008,2.69836 2.55463,2.33278 2.83097,2.11487 3.10731,1.89695 3.5408,1.90922 3.7992,2.14226 Z"
         fill="#f59e0b"
         id="path5"
         style="fill:#3b82f6;fill-opacity:1" /><path
         fill-rule="evenodd"
         clip-rule="evenodd"
         d="M 6.69698,0.193134 C 8.82432,2.2042 10,4.80501 10,7.5 10,10.195 8.82432,12.7958 6.69698,14.8069 6.44513,15.045 6.0121,15.0658 5.72978,14.8534 5.44746,14.641 5.42276,14.2758 5.67461,14.0377 7.57803,12.2383 8.62995,9.91131 8.62995,7.5 8.62995,5.08869 7.57803,2.76165 5.67461,0.962278 5.42276,0.724191 5.44746,0.359005 5.72978,0.146612 6.0121,-0.0657813 6.44513,-0.0449526 6.69698,0.193134 Z"
         fill="#f59e0b"
         id="path6"
         style="fill:#3b82f6;fill-opacity:1" /></g></g></svg>
