<?xml version="1.0" encoding="UTF-8"?>
<svg width="1200pt" height="1200pt" version="1.1" viewBox="0 0 1200 1200" xmlns="http://www.w3.org/2000/svg">
 <path d="m1007.3 928.69h-186.56c-51 0-92.25-41.25-92.25-92.438v-1.875h-475.13c-129.19 0-234.56-105.19-234.56-234.56s105.19-234.37 234.56-234.37h210.56v-2.0625c0-51 41.25-92.25 92.25-92.25h186.56v284.06h-186.56c-51 0-92.25-41.25-92.25-92.438v-1.875h-210.56c-76.688 0-139.13 62.25-139.13 138.74s62.25 139.13 139.13 139.13h475.13v-2.0625c0-51 41.25-92.438 92.25-92.438h186.56z"/>
 <path d="m804.94 325.13h111.75v176.63h-111.75z"/>
 <path d="m1069.5 698.26h111.75v176.63h-111.75z"/>
</svg>
