<svg width="512" height="512" viewBox="0 0 512 512" fill="none" xmlns="http://www.w3.org/2000/svg">
<rect width="512" height="512" fill="black"/>
<g transform="translate(76.8, 76.8) scale(0.7)">
  <path d="M306.645 54.2084C306.456 54.1585 306.266 54.1087 306.077 54.0588C289.256 49.8909 272.435 47.8967 255.853 47.8967H255.773C162.434 47.9366 77.5411 111.233 54.0593 205.917C26.4097 317.453 94.4021 430.285 205.918 457.935C222.739 462.103 239.57 464.097 256.162 464.097C349.531 464.097 434.454 400.781 457.936 306.076C485.545 194.78 417.872 82.1272 306.645 54.2084ZM441.603 302.038C420.395 387.55 344.136 447.276 256.162 447.276C240.687 447.276 225.142 445.372 209.976 441.602C160.4 429.308 118.582 398.448 92.2184 354.695C65.855 310.942 58.1076 259.552 70.4018 209.976C91.6002 124.484 167.948 64.7677 255.903 64.7278C271.348 64.7278 286.873 66.6422 302.158 70.4312L302.348 70.4811L302.547 70.5309C404.541 96.1266 466.919 199.975 441.603 302.038Z" fill="url(#paint0_linear_6880_24254)"/>
  <path d="M350.035 299.89H161.885C161.634 299.89 161.383 300.141 161.383 300.391V322.719C161.383 329.492 166.902 335.262 173.927 335.262H337.743C344.516 335.262 350.286 329.743 350.286 322.719L350.035 299.89C350.286 300.141 350.286 299.89 350.035 299.89ZM268.503 324.976H242.413C239.152 324.976 236.393 322.217 236.393 318.956C236.393 315.694 239.152 312.935 242.413 312.935H268.503C271.765 312.935 274.524 315.694 274.524 318.956C274.524 322.217 271.765 324.976 268.503 324.976Z" fill="white"/>
  <path d="M347.777 280.072L328.21 242.191V204.31C328.21 198.289 323.193 193.272 317.172 193.272H307.639V181.481H314.412C322.691 181.481 329.464 174.708 329.464 166.429V161.663C329.464 153.384 322.691 146.611 314.412 146.611H285.563C277.284 146.611 270.511 153.384 270.511 161.663V166.429C270.511 174.708 277.284 181.481 285.563 181.481H292.587V193.272H256.713H255.709H195.501C189.481 193.272 184.463 198.289 184.463 204.31V242.191L164.896 280.072C161.383 285.842 159.377 291.11 168.408 291.11H255.96H256.713H344.265C353.297 291.11 351.039 285.842 347.777 280.072ZM227.612 266.023C227.612 270.539 224.1 274.051 219.585 274.051H213.062C208.546 274.051 205.034 270.539 205.034 266.023C205.034 261.508 208.546 257.995 213.062 257.995H219.585C224.1 257.995 227.612 261.508 227.612 266.023ZM267.5 266.023C267.5 270.539 263.988 274.051 259.472 274.051H252.95C248.434 274.051 244.922 270.539 244.922 266.023C244.922 261.508 248.434 257.995 252.95 257.995H259.472C263.737 257.995 267.5 261.508 267.5 266.023ZM311.151 266.023C311.151 270.539 307.639 274.051 303.123 274.051H296.601C292.085 274.051 288.573 270.539 288.573 266.023C288.573 261.508 292.085 257.995 296.601 257.995H303.123C307.639 257.995 311.151 261.508 311.151 266.023ZM311.151 228.895C311.151 230.4 309.897 231.905 308.141 231.905H204.031C202.526 231.905 201.02 230.651 201.02 228.895V211.585C201.02 210.08 202.275 208.575 204.031 208.575H308.391C309.897 208.575 311.402 209.829 311.402 211.585V228.895H311.151Z" fill="white"/>
</g>
<defs>
<linearGradient id="paint0_linear_6880_24254" x1="127.666" y1="419.825" x2="384.336" y2="92.1856" gradientUnits="userSpaceOnUse">
<stop stop-color="#F6AF1B"/>
<stop offset="1" stop-color="#E75924"/>
</linearGradient>
</defs>
</svg>
