<svg width="10" height="15" viewBox="0 0 10 15" fill="none" xmlns="http://www.w3.org/2000/svg">
<path fill-rule="evenodd" clip-rule="evenodd" d="M1.19704 4.35805C2.10959 5.22386 2.61365 6.34197 2.61365 7.50036C2.61365 8.65875 2.10959 9.77687 1.19704 10.6427C0.945696 10.8811 0.512711 10.9026 0.229938 10.6907C-0.052834 10.4787 -0.0783133 10.1136 0.173028 9.87509C0.862664 9.22077 1.2436 8.37578 1.2436 7.50036C1.2436 6.62494 0.862664 5.77995 0.173029 5.12564C-0.0783131 4.88717 -0.0528338 4.52202 0.229938 4.31005C0.512711 4.09809 0.945697 4.11958 1.19704 4.35805Z" fill="#F59E0B"/>
<path fill-rule="evenodd" clip-rule="evenodd" d="M3.7992 2.14226C5.41043 3.5954 6.30677 5.51054 6.30677 7.5C6.30677 9.48946 5.41043 11.4046 3.7992 12.8577C3.5408 13.0908 3.10731 13.103 2.83097 12.8851C2.55463 12.6672 2.54008 12.3016 2.79848 12.0686C4.1724 10.8295 4.93671 9.19643 4.93671 7.5C4.93671 5.80357 4.1724 4.17051 2.79848 2.9314C2.54008 2.69836 2.55463 2.33278 2.83097 2.11487C3.10731 1.89695 3.5408 1.90922 3.7992 2.14226Z" fill="#F59E0B"/>
<path fill-rule="evenodd" clip-rule="evenodd" d="M6.69698 0.193134C8.82432 2.2042 10 4.80501 10 7.5C10 10.195 8.82432 12.7958 6.69698 14.8069C6.44513 15.045 6.0121 15.0658 5.72978 14.8534C5.44746 14.641 5.42276 14.2758 5.67461 14.0377C7.57803 12.2383 8.62995 9.91131 8.62995 7.5C8.62995 5.08869 7.57803 2.76165 5.67461 0.962278C5.42276 0.724191 5.44746 0.359005 5.72978 0.146612C6.0121 -0.0657813 6.44513 -0.0449526 6.69698 0.193134Z" fill="#F59E0B"/>
</svg>
