<svg width="520" height="520" viewBox="0 0 520 520" fill="none" xmlns="http://www.w3.org/2000/svg">
<rect x="2" y="2" width="516" height="516" rx="34" fill="#121212"/>
<rect x="2" y="2" width="516" height="516" rx="34" stroke="#212121" stroke-width="4"/>
<path d="M242.605 163.064C232.371 152.869 215.752 152.978 205.554 163.209L139.58 229.414C129.382 239.646 129.512 255.974 139.743 266.17L247.913 374.34C258.146 384.534 274.733 384.449 284.93 374.218L317.082 342.066C307.705 351.443 299.989 344.701 290.845 335.595L272.911 317.662C259.297 323.051 243.385 320.374 232.355 309.365L218.689 295.699C218.229 295.243 217.875 294.767 217.625 294.17C217.376 293.572 217.247 292.931 217.247 292.284C217.246 291.637 217.374 290.995 217.622 290.398C217.87 289.8 218.259 289.293 218.718 288.837L226.452 281.103L209.617 264.268C206.981 261.638 206.551 257.391 208.908 254.522C211.602 251.228 216.486 251.053 219.441 254.002L236.504 271.051L248.061 259.494L231.186 242.661C228.549 240.03 228.12 235.784 230.497 232.895C231.127 232.128 231.911 231.501 232.798 231.054C233.686 230.608 234.656 230.352 235.648 230.303C236.64 230.254 237.631 230.413 238.558 230.77C239.485 231.127 240.327 231.673 241.03 232.375L258.162 249.393L265.422 242.132C265.878 241.673 266.327 241.259 266.925 241.01C267.522 240.761 268.163 240.632 268.811 240.632C269.458 240.631 270.099 240.758 270.697 241.006C271.295 241.254 271.838 241.618 272.295 242.077L285.983 255.738C296.875 266.609 299.723 282.431 294.631 295.943L312.568 313.88C321.712 322.985 329.363 329.785 338.741 320.408L379.312 279.836C369.56 289.588 361.548 282.075 351.911 272.446L242.605 163.064Z" fill="url(#paint0_linear_1_280)"/>
<path d="M319.308 145.027L284.82 179.487L361.448 256.116C368.783 263.419 375.158 269.239 382.232 266.417C386.321 264.787 389.128 260.351 387.561 256.238C350.894 160.025 350.879 160.024 346.015 149.507C341.151 138.99 327.471 136.76 319.308 145.027Z" fill="#897FFF"/>
<path d="M319.308 145.027L284.82 179.487L361.448 256.116C368.783 263.419 375.158 269.239 382.232 266.417C386.321 264.787 389.128 260.351 387.561 256.238C350.894 160.025 350.879 160.024 346.015 149.507C341.151 138.99 327.471 136.76 319.308 145.027Z" fill="#897FFF"/>
<path d="M319.308 145.027L284.82 179.487L361.448 256.116C368.783 263.419 375.158 269.239 382.232 266.417C386.321 264.787 389.128 260.351 387.561 256.238C350.894 160.025 350.879 160.024 346.015 149.507C341.151 138.99 327.471 136.76 319.308 145.027Z" fill="#897FFF"/>
<path d="M319.308 145.027L284.82 179.487L361.448 256.116C368.783 263.419 375.158 269.239 382.232 266.417C386.321 264.787 389.128 260.351 387.561 256.238C350.894 160.025 350.879 160.024 346.015 149.507C341.151 138.99 327.471 136.76 319.308 145.027Z" fill="#897FFF"/>
<path d="M319.308 145.027L284.82 179.487L361.448 256.116C368.783 263.419 375.158 269.239 382.232 266.417C386.321 264.787 389.128 260.351 387.561 256.238C350.894 160.025 350.879 160.024 346.015 149.507C341.151 138.99 327.471 136.76 319.308 145.027Z" fill="#897FFF"/>
<defs>
<linearGradient id="paint0_linear_1_280" x1="255.656" y1="142.438" x2="255.656" y2="381.939" gradientUnits="userSpaceOnUse">
<stop stop-color="#FFCA4A"/>
<stop offset="1" stop-color="#F7931A"/>
</linearGradient>
</defs>
</svg>
