<svg width="512" height="512" viewBox="0 0 512 512" fill="none" xmlns="http://www.w3.org/2000/svg">
<rect x="0.5" y="0.5" width="511" height="511" rx="31.5" fill="#FBFBFB"/>
<rect x="0.5" y="0.5" width="511" height="511" rx="31.5" stroke="black"/>
<path d="M238.605 159.066C228.371 148.871 211.752 148.98 201.554 159.211L135.58 225.416C125.382 235.648 125.512 251.976 135.743 262.172L243.913 370.342C254.146 380.536 270.733 380.451 280.93 370.22L313.082 338.068C303.705 347.445 295.989 340.703 286.845 331.597L268.911 313.664C255.297 319.053 239.385 316.376 228.355 305.367L214.689 291.701C214.229 291.245 213.875 290.769 213.625 290.172C213.376 289.574 213.247 288.933 213.247 288.286C213.246 287.638 213.374 286.997 213.622 286.4C213.87 285.802 214.259 285.295 214.718 284.839L222.452 277.105L205.617 260.27C202.981 257.64 202.551 253.393 204.908 250.524C207.602 247.23 212.486 247.055 215.441 250.004L232.504 267.053L244.061 255.496L227.186 238.663C224.549 236.032 224.12 231.786 226.497 228.897C227.127 228.13 227.911 227.503 228.798 227.056C229.686 226.61 230.656 226.354 231.648 226.305C232.64 226.256 233.631 226.415 234.558 226.772C235.485 227.129 236.327 227.675 237.03 228.377L254.162 245.395L261.422 238.134C261.878 237.675 262.327 237.261 262.925 237.012C263.522 236.763 264.163 236.634 264.811 236.634C265.458 236.633 266.099 236.76 266.697 237.008C267.295 237.256 267.838 237.62 268.295 238.079L281.983 251.74C292.875 262.611 295.723 278.433 290.631 291.945L308.568 309.882C317.712 318.987 325.363 325.787 334.741 316.41L375.312 275.838C365.56 285.59 357.548 278.077 347.911 268.448L238.605 159.066Z" fill="url(#paint0_linear_1_279)"/>
<path d="M315.308 141.027L280.82 175.487L357.448 252.116C364.783 259.419 371.158 265.239 378.232 262.417C382.321 260.787 385.128 256.351 383.561 252.238C346.894 156.025 346.879 156.024 342.015 145.507C337.151 134.99 323.471 132.76 315.308 141.027Z" fill="#897FFF"/>
<path d="M315.308 141.027L280.82 175.487L357.448 252.116C364.783 259.419 371.158 265.239 378.232 262.417C382.321 260.787 385.128 256.351 383.561 252.238C346.894 156.025 346.879 156.024 342.015 145.507C337.151 134.99 323.471 132.76 315.308 141.027Z" fill="#897FFF"/>
<path d="M315.308 141.027L280.82 175.487L357.448 252.116C364.783 259.419 371.158 265.239 378.232 262.417C382.321 260.787 385.128 256.351 383.561 252.238C346.894 156.025 346.879 156.024 342.015 145.507C337.151 134.99 323.471 132.76 315.308 141.027Z" fill="#897FFF"/>
<path d="M315.308 141.027L280.82 175.487L357.448 252.116C364.783 259.419 371.158 265.239 378.232 262.417C382.321 260.787 385.128 256.351 383.561 252.238C346.894 156.025 346.879 156.024 342.015 145.507C337.151 134.99 323.471 132.76 315.308 141.027Z" fill="#897FFF"/>
<path d="M315.308 141.027L280.82 175.487L357.448 252.116C364.783 259.419 371.158 265.239 378.232 262.417C382.321 260.787 385.128 256.351 383.561 252.238C346.894 156.025 346.879 156.024 342.015 145.507C337.151 134.99 323.471 132.76 315.308 141.027Z" fill="#897FFF"/>
<defs>
<linearGradient id="paint0_linear_1_279" x1="251.656" y1="138.44" x2="251.656" y2="377.941" gradientUnits="userSpaceOnUse">
<stop stop-color="#FFCA4A"/>
<stop offset="1" stop-color="#F7931A"/>
</linearGradient>
</defs>
</svg>
