<svg width="474" height="107" viewBox="22 79 474 107" fill="none" xmlns="http://www.w3.org/2000/svg">
<path d="M175.529 115.979C178.851 115.979 181.721 116.567 184.145 117.745C186.568 118.922 188.571 120.51 190.164 122.518C191.757 124.526 192.93 126.877 193.692 129.578C194.454 132.28 194.833 135.182 194.833 138.295C194.833 143.068 193.952 147.586 192.186 151.839C190.42 156.097 188.015 159.798 184.971 162.947C181.927 166.096 178.326 168.588 174.178 170.418C170.025 172.252 165.525 173.17 160.683 173.17C160.063 173.17 158.972 173.151 157.416 173.119C155.859 173.083 154.075 172.928 152.072 172.654C150.064 172.376 147.937 171.96 145.687 171.408C143.437 170.856 141.311 170.094 139.303 169.126L157.26 93.6673L173.352 91.1755L166.917 117.955C168.3 117.33 169.683 116.85 171.07 116.499C172.448 116.152 173.936 115.979 175.529 115.979ZM162.034 160.405C164.457 160.405 166.739 159.821 168.884 158.639C171.029 157.462 172.882 155.887 174.438 153.916C175.994 151.944 177.222 149.713 178.121 147.221C179.02 144.729 179.472 142.133 179.472 139.436C179.472 136.113 178.915 133.521 177.81 131.65C176.701 129.784 174.661 128.848 171.686 128.848C170.714 128.848 169.454 129.021 167.898 129.368C166.342 129.715 164.941 130.441 163.695 131.55L156.845 159.99C157.26 160.058 157.621 160.127 157.936 160.2C158.251 160.273 158.575 160.323 158.922 160.355C159.268 160.392 159.684 160.405 160.167 160.405C160.651 160.405 161.272 160.405 162.034 160.405Z" fill="white"/>
<path d="M219.54 172.755C214.625 172.755 210.769 172.111 207.967 170.833C205.164 169.555 203.157 167.808 201.947 165.594C200.738 163.381 200.149 160.839 200.181 157.964C200.218 155.093 200.615 152.031 201.377 148.777L214.561 93.6629L230.648 91.1711L216.218 150.959C215.939 152.205 215.784 153.346 215.752 154.386C215.716 155.427 215.907 156.344 216.322 157.138C216.738 157.937 217.445 158.575 218.449 159.059C219.453 159.543 220.854 159.853 222.652 159.995L219.54 172.755Z" fill="white"/>
<path d="M242.891 171.719H227.53L240.505 117.12H255.971L242.891 171.719Z" fill="white"/>
<path d="M267.385 119.612C268.562 119.265 269.858 118.868 271.277 118.416C272.697 117.969 274.289 117.553 276.051 117.17C277.817 116.791 279.788 116.481 281.97 116.234C284.151 115.993 286.625 115.869 289.39 115.869C297.555 115.869 303.159 118.224 306.207 122.929C309.251 127.634 309.771 134.069 307.763 142.233L300.703 171.71H285.237L292.087 142.854C292.503 141.056 292.831 139.308 293.073 137.615C293.315 135.917 293.297 134.434 293.023 133.152C292.744 131.874 292.106 130.833 291.102 130.039C290.098 129.245 288.56 128.844 286.483 128.844C284.475 128.844 282.435 129.054 280.359 129.469L270.292 171.714H254.826L267.385 119.612Z" fill="white"/>
<path d="M333.297 136.843C337.45 133.521 341.356 130.13 345.025 126.671C348.69 123.212 351.839 120.027 354.472 117.124H371.91C368.035 121.414 364.005 125.617 359.816 129.733C355.627 133.85 350.835 138.226 345.441 142.863C346.892 144.661 348.361 146.737 349.854 149.092C351.341 151.447 352.761 153.902 354.107 156.462C355.458 159.023 356.704 161.619 357.845 164.248C358.985 166.876 359.939 169.368 360.697 171.723H343.469C342.844 169.925 342.068 167.953 341.133 165.809C340.197 163.664 339.161 161.537 338.02 159.424C336.879 157.316 335.684 155.258 334.438 153.25C333.192 151.242 331.946 149.444 330.7 147.851L324.886 171.723H309.525L328.209 93.6673L344.295 91.1755L333.297 136.843Z" fill="white"/>
<path d="M261.415 100.632C261.415 102.069 261.141 103.407 260.594 104.652C260.046 105.898 259.298 106.984 258.357 107.911C257.413 108.837 256.308 109.572 255.04 110.12C253.776 110.667 252.425 110.941 250.987 110.941C249.55 110.941 248.199 110.667 246.935 110.12C245.671 109.572 244.575 108.837 243.649 107.911C242.723 106.984 241.988 105.898 241.44 104.652C240.893 103.407 240.619 102.065 240.619 100.632C240.619 99.2355 240.893 97.9029 241.44 96.6388C241.988 95.3747 242.723 94.2794 243.649 93.353C244.575 92.4266 245.671 91.6918 246.935 91.1442C248.199 90.5966 249.55 90.3228 250.987 90.3228C252.425 90.3228 253.771 90.5966 255.04 91.1442C256.304 91.6918 257.408 92.4266 258.357 93.353C259.302 94.2794 260.046 95.3747 260.594 96.6388C261.141 97.9029 261.415 99.2355 261.415 100.632Z" fill="white"/>
<path d="M474.75 127.893C475.98 127.893 477.19 127.774 478.381 127.536C479.611 127.258 480.702 126.822 481.654 126.227C482.607 125.631 483.38 124.858 483.976 123.905C484.571 122.913 484.868 121.703 484.868 120.275C484.868 119.283 484.67 118.429 484.273 117.715C483.916 116.961 483.4 116.307 482.726 115.751C482.091 115.156 481.317 114.62 480.404 114.144C479.531 113.628 478.559 113.092 477.488 112.537C476.575 112.061 475.643 111.545 474.69 110.989C473.778 110.434 472.945 109.759 472.191 108.966C471.476 108.132 470.881 107.16 470.405 106.049C469.969 104.938 469.75 103.609 469.75 102.061C469.75 100.276 470.088 98.6291 470.762 97.1213C471.476 95.6134 472.508 94.3238 473.857 93.2525C475.206 92.1414 476.853 91.2883 478.797 90.6931C480.781 90.0979 483.043 89.8003 485.583 89.8003C486.773 89.8003 487.904 89.8995 488.975 90.0979C490.047 90.2566 491.019 90.4749 491.892 90.7526C492.804 91.0304 493.598 91.328 494.273 91.6454C494.947 91.9232 495.443 92.1811 495.761 92.4192L493.082 96.9427C492.408 96.3872 491.316 95.8912 489.809 95.4547C488.34 94.9785 486.594 94.7405 484.571 94.7405C483.301 94.7405 482.111 94.8793 481 95.1571C479.928 95.3952 478.996 95.792 478.202 96.3475C477.409 96.903 476.774 97.6173 476.298 98.4902C475.821 99.3235 475.583 100.335 475.583 101.526C475.583 102.557 475.742 103.43 476.059 104.145C476.377 104.819 476.813 105.434 477.369 105.99C477.924 106.506 478.599 106.982 479.393 107.418C480.226 107.855 481.119 108.311 482.071 108.787C483.261 109.382 484.372 109.997 485.404 110.632C486.475 111.227 487.408 111.942 488.202 112.775C488.995 113.608 489.61 114.58 490.047 115.691C490.523 116.803 490.761 118.152 490.761 119.739C490.761 121.921 490.324 123.846 489.451 125.512C488.618 127.139 487.448 128.508 485.94 129.619C484.472 130.691 482.706 131.504 480.642 132.059C478.619 132.615 476.417 132.893 474.036 132.893C472.449 132.893 471 132.774 469.691 132.536C468.421 132.337 467.29 132.079 466.298 131.762C465.346 131.444 464.532 131.127 463.858 130.81C463.183 130.452 462.667 130.135 462.31 129.857L464.989 125.155C465.743 125.671 466.933 126.266 468.56 126.941C470.187 127.576 472.25 127.893 474.75 127.893Z" fill="white"/>
<path d="M447.355 89.8003C449.538 89.8003 451.542 90.1376 453.367 90.8121C455.232 91.447 456.819 92.4192 458.129 93.7286C459.478 95.0381 460.509 96.6848 461.224 98.6688C461.978 100.613 462.354 102.895 462.354 105.514C462.354 108.807 461.839 112.081 460.807 115.334C459.815 118.588 458.327 121.524 456.343 124.143C454.359 126.723 451.879 128.826 448.903 130.452C445.927 132.079 442.455 132.893 438.487 132.893C436.265 132.893 434.241 132.575 432.416 131.94C430.591 131.266 429.003 130.274 427.654 128.964C426.345 127.655 425.313 126.028 424.559 124.084C423.845 122.1 423.488 119.798 423.488 117.179C423.488 113.926 423.984 110.672 424.976 107.418C425.968 104.125 427.456 101.188 429.44 98.6093C431.464 95.9904 433.963 93.8675 436.939 92.2406C439.915 90.6137 443.387 89.8003 447.355 89.8003ZM439.082 127.893C441.741 127.893 444.141 127.258 446.284 125.988C448.427 124.679 450.232 122.993 451.7 120.929C453.208 118.866 454.359 116.545 455.153 113.965C455.946 111.386 456.343 108.807 456.343 106.228C456.343 102.696 455.569 99.9187 454.022 97.895C452.514 95.8317 450.093 94.8 446.76 94.8C444.062 94.8 441.642 95.4547 439.499 96.7641C437.396 98.0339 435.59 99.7005 434.082 101.764C432.614 103.827 431.483 106.148 430.69 108.728C429.896 111.307 429.499 113.886 429.499 116.465C429.499 119.997 430.253 122.794 431.761 124.858C433.309 126.881 435.749 127.893 439.082 127.893Z" fill="white"/>
<path d="M406.177 90.3359C410.978 90.3359 414.589 91.2486 417.01 93.0739C419.47 94.8991 420.7 97.5577 420.7 101.05C420.7 103.748 420.184 106.089 419.152 108.073C418.16 110.017 416.732 111.624 414.867 112.894C413.002 114.164 410.76 115.116 408.141 115.751C405.522 116.346 402.606 116.644 399.392 116.644H395.285L391.594 132H385.821L395.582 91.2883C397.249 90.8915 399.015 90.6335 400.88 90.5145C402.745 90.3955 404.51 90.3359 406.177 90.3359ZM405.463 95.2166C402.645 95.2166 400.939 95.2959 400.344 95.4547L396.416 111.823H400.165C401.832 111.823 403.538 111.684 405.284 111.406C407.03 111.089 408.597 110.553 409.986 109.799C411.375 109.045 412.506 108.013 413.379 106.704C414.291 105.355 414.748 103.629 414.748 101.526C414.748 99.2639 413.914 97.6569 412.248 96.7046C410.581 95.7126 408.32 95.2166 405.463 95.2166Z" fill="white"/>
<path d="M87.8994 80.6075C87.8511 80.5948 87.8028 80.5821 87.7546 80.5694C83.4705 79.5079 79.1864 79 74.9633 79H74.943C51.171 79.0102 29.55 95.1307 23.5695 119.246C16.5276 147.652 33.8442 176.389 62.2456 183.431C66.5297 184.492 70.8163 185 75.042 185C98.8216 185 120.45 168.874 126.431 144.754C133.463 116.409 116.227 87.718 87.8994 80.6075ZM122.271 143.726C116.87 165.504 97.4478 180.716 75.042 180.716C71.1008 180.716 67.1417 180.231 63.2792 179.271C50.6529 176.14 40.0024 168.28 33.2881 157.137C26.5737 145.994 24.6005 132.905 27.7317 120.279C33.1306 98.5057 52.5753 83.2968 74.976 83.2866C78.9096 83.2866 82.8636 83.7742 86.7566 84.7392L86.8048 84.7519L86.8556 84.7646C112.832 91.2834 128.719 117.732 122.271 143.726Z" fill="url(#paint0_linear_1_108)"/>
<path d="M98.9501 143.179H51.0311C50.9672 143.179 50.9033 143.243 50.9033 143.306V148.993C50.9033 150.718 52.3089 152.187 54.0979 152.187H95.8194C97.5445 152.187 99.014 150.782 99.014 148.993L98.9501 143.179C99.014 143.243 99.014 143.179 98.9501 143.179ZM78.1852 149.568H71.5404C70.7098 149.568 70.007 148.865 70.007 148.035C70.007 147.204 70.7098 146.501 71.5404 146.501H78.1852C79.0158 146.501 79.7186 147.204 79.7186 148.035C79.7186 148.865 79.0158 149.568 78.1852 149.568Z" fill="white"/>
<path d="M98.3751 138.131L93.3915 128.483V118.836C93.3915 117.302 92.1137 116.025 90.5803 116.025H88.1524V113.022H89.8775C91.9859 113.022 93.711 111.297 93.711 109.188V107.974C93.711 105.866 91.9859 104.141 89.8775 104.141H82.5299C80.4214 104.141 78.6964 105.866 78.6964 107.974V109.188C78.6964 111.297 80.4214 113.022 82.5299 113.022H84.3189V116.025H75.1823H74.9267H59.5927C58.0592 116.025 56.7814 117.302 56.7814 118.836V128.483L51.7978 138.131C50.9033 139.601 50.3922 140.942 52.6923 140.942H74.9906H75.1823H97.4806C99.7807 140.942 99.2057 139.601 98.3751 138.131ZM67.7708 134.553C67.7708 135.703 66.8763 136.598 65.7263 136.598H64.0651C62.915 136.598 62.0206 135.703 62.0206 134.553C62.0206 133.403 62.915 132.509 64.0651 132.509H65.7263C66.8763 132.509 67.7708 133.403 67.7708 134.553ZM77.9297 134.553C77.9297 135.703 77.0352 136.598 75.8851 136.598H74.2239C73.0739 136.598 72.1794 135.703 72.1794 134.553C72.1794 133.403 73.0739 132.509 74.2239 132.509H75.8851C76.9713 132.509 77.9297 133.403 77.9297 134.553ZM89.0469 134.553C89.0469 135.703 88.1524 136.598 87.0023 136.598H85.3411C84.1911 136.598 83.2966 135.703 83.2966 134.553C83.2966 133.403 84.1911 132.509 85.3411 132.509H87.0023C88.1524 132.509 89.0469 133.403 89.0469 134.553ZM89.0469 125.097C89.0469 125.481 88.7274 125.864 88.2802 125.864H61.765C61.3816 125.864 60.9983 125.544 60.9983 125.097V120.689C60.9983 120.305 61.3177 119.922 61.765 119.922H88.344C88.7274 119.922 89.1108 120.241 89.1108 120.689V125.097H89.0469Z" fill="white"/>
<defs>
<linearGradient id="paint0_linear_1_108" x1="42.3161" y1="173.724" x2="107.686" y2="90.2797" gradientUnits="userSpaceOnUse">
<stop stop-color="#F6AF1B"/>
<stop offset="1" stop-color="#E75924"/>
</linearGradient>
</defs>
</svg>
